<?xml version="1.0" encoding="UTF-8" standalone="no" ?>
<!DOCTYPE svg PUBLIC "-//W3C//DTD SVG 1.1//EN" "http://www.w3.org/Graphics/SVG/1.1/DTD/svg11.dtd">
<svg xmlns="http://www.w3.org/2000/svg" xmlns:xlink="http://www.w3.org/1999/xlink" version="1.1" width="1080" height="1080" viewBox="0 0 1080 1080" xml:space="preserve">
<desc>Created with Fabric.js 5.2.4</desc>
<defs>
</defs>
<g transform="matrix(1 0 0 1 540 540)" id="933d61b0-d2ea-4cde-b161-f6b019cdb2db"  >
<rect style="stroke: none; stroke-width: 1; stroke-dasharray: none; stroke-linecap: butt; stroke-dashoffset: 0; stroke-linejoin: miter; stroke-miterlimit: 4; fill: rgb(255,255,255); fill-rule: nonzero; opacity: 1; visibility: hidden;" vector-effect="non-scaling-stroke"  x="-540" y="-540" rx="0" ry="0" width="1080" height="1080" />
</g>
<g transform="matrix(1 0 0 1 540 540)" id="2d1fcfa0-e6a3-44cf-856e-e61d15100d03"  >
</g>
<g transform="matrix(1 0 0 1 540 540)"  >
<g style="" vector-effect="non-scaling-stroke"   >
		<g transform="matrix(6.1 0 0 6.1 0 0)"  >
<rect style="stroke: none; stroke-width: 1; stroke-dasharray: none; stroke-linecap: butt; stroke-dashoffset: 0; stroke-linejoin: miter; stroke-miterlimit: 4; fill: rgb(61,153,112); fill-rule: nonzero; opacity: 1;" vector-effect="non-scaling-stroke"  x="-50" y="-50" rx="10" ry="10" width="100" height="100" />
</g>
		<g transform="matrix(0.97 0 0 0.97 -17.89 -16.08)"  >
<rect style="stroke: none; stroke-width: 1; stroke-dasharray: none; stroke-linecap: butt; stroke-dashoffset: 0; stroke-linejoin: miter; stroke-miterlimit: 4; fill: none; fill-rule: nonzero; opacity: 1;" vector-effect="non-scaling-stroke"  x="-294.055" y="-296.625" rx="0" ry="0" width="588.11" height="593.25" />
</g>
		<g transform="matrix(0.97 0 0 0.97 -107.49 -2.17)"  >
<path style="stroke: none; stroke-width: 1; stroke-dasharray: none; stroke-linecap: butt; stroke-dashoffset: 0; stroke-linejoin: miter; stroke-miterlimit: 4; fill: rgb(255,255,255); fill-rule: nonzero; opacity: 1;" vector-effect="non-scaling-stroke"  paint-order="stroke"  transform=" translate(-911.27, -312.45)" d="M 810.729 404.85 Q 810.729 387 820.1790000000001 375.71000000000004 Q 829.6290000000001 364.4200000000001 839.349 364.42 Q 849.0590000000001 364.42 854.5690000000001 371.25 Q 860.0790000000001 378.07 860.0790000000001 387.52 Q 860.0790000000001 406.95 845.9090000000001 418.5 Q 851.6790000000001 441.07 869.7990000000001 451.84000000000003 Q 887.9090000000001 462.6 909.9590000000001 462.6 Q 942.509 462.6 961.6690000000001 440.55 Q 980.8290000000002 418.5 980.8290000000001 391.2 Q 980.8290000000001 363.37 959.8290000000001 343.41999999999996 Q 944.0790000000001 329.24999999999994 919.4090000000001 312.96999999999997 L 892.6290000000001 295.65 Q 863.7590000000001 277.27 848.5290000000001 257.59 Q 833.3090000000001 237.89999999999998 833.3090000000001 208.76 Q 833.3090000000001 179.62 855.359 159.41 Q 877.409 139.2 907.599 139.2 Q 937.779 139.2 958.259 152.85 Q 978.729 166.5 978.729 185.92 Q 978.729 195.36999999999998 973.219 200.89 Q 967.7090000000001 206.39999999999998 957.2090000000001 206.39999999999998 Q 946.7090000000001 206.39999999999998 936.999 197.46999999999997 Q 927.279 188.54999999999998 927.279 181.19999999999996 Q 927.279 173.84999999999994 928.859 169.11999999999995 Q 924.129 160.19999999999996 906.8090000000001 160.19999999999996 Q 889.479 160.19999999999996 876.099 173.84999999999997 Q 862.7090000000001 187.49999999999997 862.7090000000001 204.29999999999995 Q 862.7090000000001 231.59999999999997 912.0590000000001 264.15 L 938.8290000000001 282 Q 956.1590000000001 294.07 964.8190000000001 300.64 Q 973.479 307.2 986.609 320.84999999999997 Q 1011.8090000000001 347.09999999999997 1011.8090000000001 390.15 Q 1011.8090000000001 433.2 981.8790000000001 459.45 Q 951.9590000000002 485.7 911.0090000000001 485.7 Q 870.0590000000001 485.7 840.3990000000001 460.76 Q 810.7290000000002 435.82 810.7290000000002 404.85" stroke-linecap="round" />
</g>
		<g transform="matrix(0.97 0 0 0.97 85.22 -2.18)"  >
<path style="stroke: none; stroke-width: 1; stroke-dasharray: none; stroke-linecap: butt; stroke-dashoffset: 0; stroke-linejoin: miter; stroke-miterlimit: 4; fill: rgb(255,255,255); fill-rule: nonzero; opacity: 1;" vector-effect="non-scaling-stroke"  paint-order="stroke"  transform=" translate(-1110.25, -312.44)" d="M 1201.869 403.27 Q 1203.4389999999999 398.02 1208.6889999999999 394.09 Q 1213.9389999999999 390.15 1219.4589999999998 390.15 Q 1224.9689999999998 390.15 1229.4289999999999 395.14 Q 1233.889 400.12 1233.889 405.9 Q 1233.889 431.62 1201.339 458.4 Q 1168.789 485.16999999999996 1125.739 485.16999999999996 Q 1065.8890000000001 485.16999999999996 1026.259 440.80999999999995 Q 986.619 396.44999999999993 986.619 314.0199999999999 Q 986.619 231.5999999999999 1026.779 185.6599999999999 Q 1066.9389999999999 139.7199999999999 1121.019 139.7199999999999 Q 1149.369 139.7199999999999 1170.629 151.26999999999992 Q 1191.889 162.81999999999994 1191.889 185.91999999999993 Q 1191.889 194.31999999999994 1186.9089999999999 200.61999999999992 Q 1181.9189999999999 206.91999999999993 1170.889 206.91999999999993 Q 1159.869 206.91999999999993 1150.1589999999999 197.46999999999994 Q 1140.4389999999999 188.01999999999995 1140.4389999999999 177.51999999999995 Q 1140.4389999999999 175.41999999999996 1143.069 168.59999999999997 Q 1134.6689999999999 164.91999999999996 1118.9189999999999 164.91999999999996 Q 1078.4889999999998 164.91999999999996 1048.0389999999998 206.39999999999995 Q 1017.5889999999997 247.86999999999995 1017.5889999999997 309.29999999999995 Q 1017.5889999999997 344.46999999999997 1029.6689999999996 378.06999999999994 Q 1041.7389999999996 411.66999999999996 1066.6789999999996 435.29999999999995 Q 1091.6189999999997 458.91999999999996 1121.0189999999996 458.91999999999996 Q 1150.4189999999994 458.91999999999996 1172.4689999999996 442.90999999999997 Q 1194.5189999999998 426.9 1201.8689999999997 403.27" stroke-linecap="round" />
</g>
		<g transform="matrix(1 0 0 1 0 0)"  >
<path style="stroke: rgb(255,255,255); stroke-opacity: 0; stroke-width: 1; stroke-dasharray: none; stroke-linecap: butt; stroke-dashoffset: 0; stroke-linejoin: miter; stroke-miterlimit: 4; fill: rgb(255,255,255); fill-opacity: 0; fill-rule: nonzero; opacity: 1;" vector-effect="non-scaling-stroke"  transform=" translate(-1000, -315)" d="M 685 0 L 1315 0 L 1315 630 L 685 630 z" stroke-linecap="round" />
</g>
</g>
</g>
</svg>